<?xml version="1.0" encoding="UTF-8" standalone="no"?>
<!-- Created with Inkscape (http://www.inkscape.org/) -->

<svg
   xmlns:dc="http://purl.org/dc/elements/1.1/"
   xmlns:cc="http://creativecommons.org/ns#"
   xmlns:rdf="http://www.w3.org/1999/02/22-rdf-syntax-ns#"
   xmlns:svg="http://www.w3.org/2000/svg"
   xmlns="http://www.w3.org/2000/svg"
   xmlns:sodipodi="http://sodipodi.sourceforge.net/DTD/sodipodi-0.dtd"
   xmlns:inkscape="http://www.inkscape.org/namespaces/inkscape"
   width="160"
   height="160"
   viewBox="0 0 160 160"
   id="svg2"
   version="1.1"
   inkscape:version="0.91 r13725"
   sodipodi:docname="birdbody_fb_profile.svg"
   inkscape:export-filename="/home/magnus/my_code/birdbody/assets/birdbody_square_logo.png"
   inkscape:export-xdpi="90"
   inkscape:export-ydpi="90">
  <defs
     id="defs4" />
  <sodipodi:namedview
     id="base"
     pagecolor="#ffffff"
     bordercolor="#666666"
     borderopacity="1.0"
     inkscape:pageopacity="0.0"
     inkscape:pageshadow="2"
     inkscape:zoom="1"
     inkscape:cx="-54.449558"
     inkscape:cy="346.27215"
     inkscape:document-units="px"
     inkscape:current-layer="layer1"
     showgrid="true"
     units="px"
     width="512px"
     inkscape:window-width="1916"
     inkscape:window-height="1041"
     inkscape:window-x="0"
     inkscape:window-y="18"
     inkscape:window-maximized="0">
    <inkscape:grid
       type="xygrid"
       id="grid3344" />
  </sodipodi:namedview>
  <metadata
     id="metadata7">
    <rdf:RDF>
      <cc:Work
         rdf:about="">
        <dc:format>image/svg+xml</dc:format>
        <dc:type
           rdf:resource="http://purl.org/dc/dcmitype/StillImage" />
        <dc:title></dc:title>
      </cc:Work>
    </rdf:RDF>
  </metadata>
  <g
     inkscape:label="Layer 1"
     inkscape:groupmode="layer"
     id="layer1"
     transform="translate(0,-892.3622)">
    <g
       id="g3579"
       transform="matrix(0.30982648,0,0,0.30982648,-4.3678287,726.33233)">
      <path
         d="m 264.79451,633.99911 a 57.87111,48.623895 0 0 1 -115.74222,0 57.87111,48.623895 0 1 1 115.74222,0 z"
         style="fill:#ffffff;stroke:#000000;stroke-width:18.7003212;stroke-linejoin:round"
         id="path4006"
         inkscape:connector-curvature="0" />
      <path
         d="m 204.17736,630.34733 a 3.4446969,4.8623895 0 0 1 -6.88938,0 3.4446969,4.8623895 0 1 1 6.88938,0 z"
         style="fill:#ffffff;stroke:#ffffff;stroke-width:18.7003212;stroke-linejoin:round"
         id="path4019"
         inkscape:connector-curvature="0" />
      <path
         d="m 396.01048,633.99911 a 57.87111,48.623895 0 1 1 -115.74222,0 57.87111,48.623895 0 1 1 115.74222,0 z"
         style="fill:#ffffff;stroke:#000000;stroke-width:18.7003212;stroke-linejoin:round"
         id="path4028"
         inkscape:connector-curvature="0" />
      <path
         d="m 335.39333,630.34733 a 3.4446969,4.8623895 0 0 1 -6.88939,0 3.4446969,4.8623895 0 1 1 6.88939,0 z"
         style="fill:#ffffff;stroke:#ffffff;stroke-width:18.7003212;stroke-linejoin:round"
         id="path4032"
         inkscape:connector-curvature="0" />
      <path
         d="m 406.69472,771.95626 c 0,49.34371 -59.83843,211.39925 -133.65156,211.39925 -73.81311,0 -133.65155,-162.05617 -133.65155,-211.39925 0,-49.3437 59.83844,-89.34544 133.65155,-89.34544 73.81313,0 133.65156,40.0011 133.65156,89.34544 z"
         style="fill:#000000;stroke:#000000;stroke-width:18.69986916;stroke-linejoin:round"
         id="path4036"
         inkscape:connector-curvature="0" />
      <path
         d="m 300.15805,671.79666 -26.49927,10e-6 -26.49927,-10e-6 13.25002,13.90958 13.25,13.90958 13.25001,-13.90958 13.25002,-13.90958 z"
         style="fill:#ffffff;stroke:#ffffff;stroke-width:1.75943124;stroke-linejoin:round"
         id="path4045"
         inkscape:connector-curvature="0" />
      <path
         d="m 323.74429,580.18842 124.00483,-33.05011 c 8.7541,43.3816 -83.0907,42.06371 -125.38839,42.06371 z"
         style="fill:#000000;stroke:#000000;stroke-width:4.31539822;stroke-linejoin:round"
         id="rect4049"
         inkscape:connector-curvature="0" />
      <path
         d="M 220.8692,580.18842 96.864371,547.13575 c -8.754744,43.38161 83.090699,42.06372 125.388389,42.06372 z"
         style="fill:#000000;stroke:#000000;stroke-width:4.31539822;stroke-linejoin:round"
         id="path4052"
         inkscape:connector-curvature="0" />
      <path
         d="m 226.43662,887.16588 a 8.436275,7.4425909 0 0 1 -16.87255,0 8.436275,7.4425909 0 1 1 16.87255,0 z"
         style="fill:#ffffff"
         id="path4076"
         inkscape:connector-curvature="0" />
      <path
         d="m 243.33273,887.16588 a 8.436272,7.4425883 0 0 1 -16.87254,0 8.436272,7.4425883 0 1 1 16.87254,0 z"
         style="fill:#ffffff"
         id="path4078"
         inkscape:connector-curvature="0" />
      <path
         d="m 260.17785,887.16588 a 8.436272,7.4425883 0 0 1 -16.87254,0 8.436272,7.4425883 0 1 1 16.87254,0 z"
         style="fill:#ffffff"
         id="path4080"
         inkscape:connector-curvature="0" />
      <path
         d="m 297.29834,887.16588 a 8.436275,7.4425909 0 0 1 -16.87255,0 8.436275,7.4425909 0 1 1 16.87255,0 z"
         style="fill:#ffffff"
         id="path4082"
         inkscape:connector-curvature="0" />
      <path
         d="m 314.16896,887.16588 a 8.436272,7.4425883 0 0 1 -16.87254,0 8.436272,7.4425883 0 1 1 16.87254,0 z"
         style="fill:#ffffff"
         id="path4084"
         inkscape:connector-curvature="0" />
      <path
         d="m 331.03958,887.16588 a 8.436272,7.4425883 0 0 1 -16.87254,0 8.436272,7.4425883 0 1 1 16.87254,0 z"
         style="fill:#ffffff"
         id="path4086"
         inkscape:connector-curvature="0" />
      <path
         d="m 272.16966,650.64845 c -4.46141,6.02018 -7.11104,13.55388 -12.57007,19.14745 -3.33415,2.37853 -10.19315,-1.23157 -13.10822,2.32019 8.15669,9.92919 17.41131,19.63777 26.86421,28.25797 5.52548,-2.97052 9.40573,-9.14941 14.17362,-13.40277 4.33057,-4.99079 9.80486,-9.45099 13.28418,-14.91449 -3.15651,-3.00969 -8.90713,-0.69014 -12.95773,-1.74942 -6.70809,-2.28009 -8.68907,-10.60886 -12.38646,-15.94867 -1.0028,-1.1365 -1.48387,-3.78678 -3.29959,-3.71026 z"
         style="color:#000000;fill:#ffffff"
         id="path3427"
         inkscape:connector-curvature="0" />
      <path
         style="fill:#00ffff"
         id="path3"
         d="m 334.91945,890.32124 -125.4789,0 c -14.94264,0 -27.06021,12.6815 -27.06021,28.32461 l 0,60.51068 c 0,15.643 12.11757,28.32447 27.06021,28.32447 l 20.70423,0 0,33.436 c 0,1.8445 2.53592,3.1449 3.84881,1.595 9.8636,-11.6776 19.72897,-23.3534 29.59436,-35.031 l 71.3315,0 c 14.94265,0 27.06022,-12.68147 27.06022,-28.32447 l 0,-60.51068 c 0,-15.64311 -12.11757,-28.32461 -27.06022,-28.32461 z"
         inkscape:connector-curvature="0" />
      <text
         sodipodi:linespacing="125%"
         id="text3471"
         y="984.81805"
         x="184.08928"
         style="font-style:normal;font-weight:normal;font-size:94.05898285px;line-height:125%;font-family:sans-serif;letter-spacing:0px;word-spacing:0px;fill:#000000;fill-opacity:1;stroke:none;stroke-width:1px;stroke-linecap:butt;stroke-linejoin:miter;stroke-opacity:1"
         xml:space="preserve"><tspan
           style="font-style:normal;font-variant:normal;font-weight:normal;font-stretch:normal;font-family:Hack;-inkscape-font-specification:Hack"
           y="984.81805"
           x="184.08928"
           id="tspan3473"
           sodipodi:role="line">140</tspan></text>
      <path
         d="m 229.97412,633.99898 a 21.357255,19.448962 0 0 1 -42.7145,0 21.357255,19.448962 0 1 1 42.7145,0 z"
         style="fill:#00ffff;stroke:#000000;stroke-width:18.7003212;stroke-linejoin:round"
         id="path4017"
         inkscape:connector-curvature="0" />
      <path
         d="m 357.97412,634.97223 a 21.357255,19.448962 0 0 0 -42.7145,0 21.357255,19.448962 0 1 0 42.7145,0 z"
         style="fill:#00ffff;stroke:#000000;stroke-width:18.7003212;stroke-linejoin:round"
         id="path4017-6"
         inkscape:connector-curvature="0" />
    </g>
  </g>
</svg>
