<?xml version="1.0" encoding="UTF-8" standalone="no"?>
<!-- Created with Inkscape (http://www.inkscape.org/) -->

<svg
   xmlns:dc="http://purl.org/dc/elements/1.1/"
   xmlns:cc="http://creativecommons.org/ns#"
   xmlns:rdf="http://www.w3.org/1999/02/22-rdf-syntax-ns#"
   xmlns:svg="http://www.w3.org/2000/svg"
   xmlns="http://www.w3.org/2000/svg"
   xmlns:sodipodi="http://sodipodi.sourceforge.net/DTD/sodipodi-0.dtd"
   xmlns:inkscape="http://www.inkscape.org/namespaces/inkscape"
   width="851"
   height="315"
   viewBox="0 0 851 315"
   id="svg2"
   version="1.1"
   inkscape:version="0.91 r13725"
   sodipodi:docname="birdbody_fb_banner.svg"
   inkscape:export-filename="/home/magnus/my_code/birdbody/assets/birdbody_fb_banner.png"
   inkscape:export-xdpi="90"
   inkscape:export-ydpi="90">
  <defs
     id="defs4" />
  <sodipodi:namedview
     id="base"
     pagecolor="#ffffff"
     bordercolor="#666666"
     borderopacity="1.0"
     inkscape:pageopacity="0.0"
     inkscape:pageshadow="2"
     inkscape:zoom="1"
     inkscape:cx="507.97248"
     inkscape:cy="339.3424"
     inkscape:document-units="px"
     inkscape:current-layer="layer1"
     showgrid="true"
     units="px"
     width="512px"
     inkscape:window-width="1916"
     inkscape:window-height="1041"
     inkscape:window-x="0"
     inkscape:window-y="18"
     inkscape:window-maximized="0">
    <inkscape:grid
       type="xygrid"
       id="grid3344" />
  </sodipodi:namedview>
  <metadata
     id="metadata7">
    <rdf:RDF>
      <cc:Work
         rdf:about="">
        <dc:format>image/svg+xml</dc:format>
        <dc:type
           rdf:resource="http://purl.org/dc/dcmitype/StillImage" />
        <dc:title></dc:title>
      </cc:Work>
    </rdf:RDF>
  </metadata>
  <g
     inkscape:label="Layer 1"
     inkscape:groupmode="layer"
     id="layer1"
     transform="translate(0,-737.3622)">
    <text
       xml:space="preserve"
       style="font-style:normal;font-weight:normal;font-size:40px;line-height:125%;font-family:sans-serif;letter-spacing:0px;word-spacing:0px;fill:#00ffff;fill-opacity:1;stroke:none;stroke-width:1px;stroke-linecap:butt;stroke-linejoin:miter;stroke-opacity:1"
       x="13"
       y="1021.3622"
       id="text3695"
       sodipodi:linespacing="125%"><tspan
         sodipodi:role="line"
         id="tspan3697"
         x="13"
         y="1021.3622"
         style="font-style:normal;font-variant:normal;font-weight:normal;font-stretch:normal;font-size:90px;font-family:Hack;-inkscape-font-specification:Hack;fill:#00ffff" /></text>
    <g
       id="g3841"
       transform="matrix(0.92784011,0,0,0.87949568,25.600915,107.83477)">
      <g
         transform="matrix(1.5557323,0,0,1.4988964,-60.156213,-382.85619)"
         id="g3742">
        <path
           inkscape:connector-curvature="0"
           id="path4006"
           style="fill:#ffffff;stroke:#000000;stroke-width:6.04432344;stroke-linejoin:round"
           d="m 504.99628,787.02446 a 18.70512,15.716232 0 0 1 -37.41024,0 18.70512,15.716232 0 1 1 37.41024,0 z" />
        <path
           inkscape:connector-curvature="0"
           id="path4019"
           style="fill:#ffffff;stroke:#ffffff;stroke-width:6.04432344;stroke-linejoin:round"
           d="m 485.40359,785.84413 a 1.1133959,1.5716229 0 0 1 -2.22679,0 1.1133959,1.5716229 0 1 1 2.22679,0 z" />
        <path
           inkscape:connector-curvature="0"
           id="path4028"
           style="fill:#ffffff;stroke:#000000;stroke-width:6.04432344;stroke-linejoin:round"
           d="m 547.40794,787.02446 a 18.705117,15.716229 0 0 1 -37.41023,0 18.705117,15.716229 0 1 1 37.41023,0 z" />
        <path
           inkscape:connector-curvature="0"
           id="path4032"
           style="fill:#ffffff;stroke:#ffffff;stroke-width:6.04432344;stroke-linejoin:round"
           d="m 527.81525,785.84413 a 1.1133959,1.5716229 0 0 1 -2.22679,0 1.1133959,1.5716229 0 1 1 2.22679,0 z" />
        <path
           inkscape:connector-curvature="0"
           id="path4036"
           style="fill:#000000;stroke:#000000;stroke-width:6.04417706;stroke-linejoin:round"
           d="m 550.86131,831.61501 c 0,15.94888 -19.341,68.32852 -43.1989,68.32852 -23.8579,0 -43.19889,-52.37984 -43.19889,-68.32852 0,-15.94889 19.34099,-28.87826 43.19889,-28.87826 23.8579,0 43.1989,12.92916 43.1989,28.87826 z" />
        <path
           inkscape:connector-curvature="0"
           id="path4045"
           style="fill:#ffffff;stroke:#ffffff;stroke-width:0.56868386;stroke-linejoin:round"
           d="m 516.42649,799.24139 -8.5651,0 -8.5651,0 4.28267,4.49586 4.28267,4.49586 4.28267,-4.49586 4.28268,-4.49586 z" />
        <path
           inkscape:connector-curvature="0"
           id="rect4049"
           style="fill:#000000;stroke:#000000;stroke-width:1.39482427;stroke-linejoin:round"
           d="m 524.05004,769.63175 40.08088,-10.68247 c 2.8295,14.02182 -26.8566,13.59585 -40.52807,13.59585 z" />
        <path
           inkscape:connector-curvature="0"
           id="path4052"
           style="fill:#000000;stroke:#000000;stroke-width:1.39482427;stroke-linejoin:round"
           d="m 490.79873,769.63175 -40.08088,-10.68329 c -2.82971,14.02181 26.8566,13.59584 40.52807,13.59584 z" />
        <path
           inkscape:connector-curvature="0"
           id="path4076"
           style="fill:#ffffff"
           d="m 492.59823,868.85309 a 2.7267753,2.4055964 0 0 1 -5.45355,0 2.7267753,2.4055964 0 1 1 5.45355,0 z" />
        <path
           inkscape:connector-curvature="0"
           id="path4078"
           style="fill:#ffffff"
           d="m 498.0594,868.85309 a 2.726775,2.4055961 0 0 1 -5.45355,0 2.726775,2.4055961 0 1 1 5.45355,0 z" />
        <path
           inkscape:connector-curvature="0"
           id="path4080"
           style="fill:#ffffff"
           d="m 503.50408,868.85309 a 2.726775,2.4055961 0 0 1 -5.45355,0 2.726775,2.4055961 0 1 1 5.45355,0 z" />
        <path
           inkscape:connector-curvature="0"
           id="path4082"
           style="fill:#ffffff"
           d="m 515.50218,868.85309 a 2.7267753,2.4055964 0 0 1 -5.45355,0 2.7267753,2.4055964 0 1 1 5.45355,0 z" />
        <path
           inkscape:connector-curvature="0"
           id="path4084"
           style="fill:#ffffff"
           d="m 520.9551,868.85309 a 2.7267743,2.4055955 0 0 1 -5.45354,0 2.7267743,2.4055955 0 1 1 5.45354,0 z" />
        <path
           inkscape:connector-curvature="0"
           id="path4086"
           style="fill:#ffffff"
           d="m 526.40803,868.85309 a 2.726775,2.4055961 0 0 1 -5.45355,0 2.726775,2.4055961 0 1 1 5.45355,0 z" />
        <path
           inkscape:connector-curvature="0"
           id="path3427"
           style="color:#000000;fill:#ffffff"
           d="m 507.38008,792.40586 c -1.44202,1.94585 -2.29844,4.38089 -4.06291,6.18885 -1.07766,0.76878 -3.29463,-0.39807 -4.23684,0.74993 2.63641,3.20931 5.62769,6.34732 8.68306,9.13355 1.78595,-0.96014 3.04012,-2.95728 4.5812,-4.33205 1.39973,-1.61313 3.16913,-3.05475 4.29372,-4.82067 -1.02025,-0.97279 -2.87897,-0.22306 -4.1882,-0.56544 -2.16819,-0.73698 -2.80849,-3.429 -4.00356,-5.15494 -0.32412,-0.36734 -0.47962,-1.22396 -1.06649,-1.19923 z" />
        <path
           inkscape:connector-curvature="0"
           id="path4017"
           style="fill:#00ffff;stroke:#000000;stroke-width:6.04432344;stroke-linejoin:round"
           d="m 493.74162,787.02441 a 6.9030982,6.2862991 0 0 1 -13.80619,0 6.9030982,6.2862991 0 1 1 13.80619,0 z" />
        <path
           inkscape:connector-curvature="0"
           id="path4017-6"
           style="fill:#00ffff;stroke:#000000;stroke-width:6.04432344;stroke-linejoin:round"
           d="m 535.11382,787.33899 a 6.9030982,6.2862991 0 0 0 -13.80619,0 6.9030982,6.2862991 0 1 0 13.80619,0 z" />
      </g>
      <text
         transform="scale(1.0187829,0.98156344)"
         sodipodi:linespacing="125%"
         id="text3695-9"
         y="1023.4893"
         x="391.30487"
         style="font-style:normal;font-weight:normal;font-size:68.39754486px;line-height:125%;font-family:sans-serif;letter-spacing:0px;word-spacing:0px;fill:#00ffff;fill-opacity:1;stroke:none;stroke-width:1px;stroke-linecap:butt;stroke-linejoin:miter;stroke-opacity:1"
         xml:space="preserve"><tspan
           style="font-style:normal;font-variant:normal;font-weight:normal;font-stretch:normal;font-size:153.89448547px;font-family:Hack;-inkscape-font-specification:Hack;fill:#00ffff"
           y="1023.4893"
           x="391.30487"
           id="tspan3697-5"
           sodipodi:role="line">body </tspan></text>
      <g
         transform="translate(11,-15)"
         id="g3833">
        <g
           id="g3737"
           transform="matrix(1.5557323,0,0,1.4988964,-590.66093,-465.29549)">
          <path
             style="fill:#00ffff"
             id="path3"
             d="m 527.66208,869.87297 -40.55732,0 c -4.82977,0 -8.74641,4.09892 -8.74641,9.15509 l 0,19.55828 c 0,5.05613 3.91664,9.15504 8.74641,9.15504 l 6.69202,0 0,10.80719 c 0,0.59618 0.81966,1.0165 1.24402,0.51554 3.18811,-3.77444 6.3768,-7.54829 9.56549,-11.32273 l 23.05579,0 c 4.82977,0 8.74641,-4.09891 8.74641,-9.15504 l 0,-19.55828 c 0,-5.05617 -3.91664,-9.15509 -8.74641,-9.15509 z"
             inkscape:connector-curvature="0" />
          <text
             sodipodi:linespacing="125%"
             id="text3471"
             y="900.41626"
             x="478.91071"
             style="font-style:normal;font-weight:normal;font-size:30.40177155px;line-height:125%;font-family:sans-serif;letter-spacing:0px;word-spacing:0px;fill:#000000;fill-opacity:1;stroke:none;stroke-width:1px;stroke-linecap:butt;stroke-linejoin:miter;stroke-opacity:1"
             xml:space="preserve"><tspan
               style="font-style:normal;font-variant:normal;font-weight:normal;font-stretch:normal;font-family:Hack;-inkscape-font-specification:Hack"
               y="900.41626"
               x="478.91071"
               id="tspan3473"
               sodipodi:role="line">140</tspan></text>
        </g>
        <text
           xml:space="preserve"
           style="font-style:normal;font-weight:normal;font-size:68.39754486px;line-height:125%;font-family:sans-serif;letter-spacing:0px;word-spacing:0px;fill:#000000;fill-opacity:1;stroke:none;stroke-width:1px;stroke-linecap:butt;stroke-linejoin:miter;stroke-opacity:1"
           x="19.085922"
           y="1038.4054"
           id="text3695-9-3"
           sodipodi:linespacing="125%"
           transform="scale(1.0187829,0.98156344)"><tspan
             sodipodi:role="line"
             id="tspan3697-5-1"
             x="19.085922"
             y="1038.4054"
             style="font-style:normal;font-variant:normal;font-weight:normal;font-stretch:normal;font-size:153.89448547px;font-family:Hack;-inkscape-font-specification:Hack;fill:#000000">Bird </tspan></text>
      </g>
    </g>
  </g>
</svg>
